<?xml version="1.0" encoding="UTF-8" standalone="no"?>
<svg
   width="256"
   height="256"
   viewBox="0 0 256 256"
   version="1.1"
   role="img"
   aria-label="OpenSeizureDetector flower logo"
   sodipodi:docname="logo_new_simplified.svg"
   id="svg56"
   xml:space="preserve"
   inkscape:version="1.2.2 (b0a8486541, 2022-12-01)"
   inkscape:export-filename="logo_new_simplified_48x48.png"
   inkscape:export-xdpi="23.875648"
   inkscape:export-ydpi="23.875648"
   xmlns:inkscape="http://www.inkscape.org/namespaces/inkscape"
   xmlns:sodipodi="http://sodipodi.sourceforge.net/DTD/sodipodi-0.dtd"
   xmlns="http://www.w3.org/2000/svg"
   xmlns:svg="http://www.w3.org/2000/svg"><defs
     id="defs60"><rect
       x="111.20869"
       y="101.69915"
       width="69.79661"
       height="49.661017"
       id="rect2918" /></defs><sodipodi:namedview
     id="namedview58"
     pagecolor="#ffffff"
     bordercolor="#000000"
     borderopacity="0.25"
     inkscape:showpageshadow="2"
     inkscape:pageopacity="0.0"
     inkscape:pagecheckerboard="0"
     inkscape:deskcolor="#d1d1d1"
     showgrid="false"
     inkscape:zoom="2.56"
     inkscape:cx="146.875"
     inkscape:cy="125"
     inkscape:window-width="1854"
     inkscape:window-height="1131"
     inkscape:window-x="0"
     inkscape:window-y="0"
     inkscape:window-maximized="1"
     inkscape:current-layer="svg56" /><!-- Underlayer petals: each is ONE object with fill+stroke --><!-- Underlayer veins (aligned to underlayer): separate paths --><!-- Top petals (opaque) --><g
     id="top"
     transform="translate(128 128)"><path
       d="M 0 -96 C 16 -88, 26 -64, 20 -46 C 14 -28, 6 -22, 0 -28 C -6 -22, -14 -28, -20 -46 C -26 -64, -16 -88, 0 -96 Z"
       style="fill:#0000bf;stroke:#ccccff;fill-opacity:1;stroke-opacity:1"
       id="path28"
       transform="rotate(0)" /><path
       d="M 0 -96 C 16 -88, 26 -64, 20 -46 C 14 -28, 6 -22, 0 -28 C -6 -22, -14 -28, -20 -46 C -26 -64, -16 -88, 0 -96 Z"
       transform="rotate(60)"
       style="fill:#0000bf;stroke:#ccccff;fill-opacity:1;stroke-opacity:1"
       id="path30" /><path
       d="M 0 -96 C 16 -88, 26 -64, 20 -46 C 14 -28, 6 -22, 0 -28 C -6 -22, -14 -28, -20 -46 C -26 -64, -16 -88, 0 -96 Z"
       transform="rotate(120)"
       style="fill:#0000bf;stroke:#ccccff;fill-opacity:1;stroke-opacity:1"
       id="path32" /><path
       d="M 0 -96 C 16 -88, 26 -64, 20 -46 C 14 -28, 6 -22, 0 -28 C -6 -22, -14 -28, -20 -46 C -26 -64, -16 -88, 0 -96 Z"
       transform="rotate(180)"
       style="fill:#0000bf;stroke:#ccccff;fill-opacity:1;stroke-opacity:1"
       id="path34" /><path
       d="M 0 -96 C 16 -88, 26 -64, 20 -46 C 14 -28, 6 -22, 0 -28 C -6 -22, -14 -28, -20 -46 C -26 -64, -16 -88, 0 -96 Z"
       transform="rotate(240)"
       style="fill:#0000bf;stroke:#ccccff;fill-opacity:1;stroke-opacity:1"
       id="path36" /><path
       d="M 0 -96 C 16 -88, 26 -64, 20 -46 C 14 -28, 6 -22, 0 -28 C -6 -22, -14 -28, -20 -46 C -26 -64, -16 -88, 0 -96 Z"
       transform="rotate(300)"
       style="fill:#0000bf;stroke:#ccccff;fill-opacity:1;stroke-opacity:1"
       id="path38" /></g><!-- Top veins --><g
     id="top-veins"
     transform="translate(128 128)"><path
       d="M 0 -32 C 3 -54, 3 -74, 0 -92"
       transform="rotate(0)"
       style="fill:none;stroke:#f2fbff;stroke-opacity:0.70;stroke-width:2;stroke-linecap:round"
       id="path41" /><path
       d="M 0 -32 C 3 -54, 3 -74, 0 -92"
       transform="rotate(60)"
       style="fill:none;stroke:#f2fbff;stroke-opacity:0.70;stroke-width:2;stroke-linecap:round"
       id="path43" /><path
       d="M 0 -32 C 3 -54, 3 -74, 0 -92"
       transform="rotate(120)"
       style="fill:none;stroke:#f2fbff;stroke-opacity:0.70;stroke-width:2;stroke-linecap:round"
       id="path45" /><path
       d="M 0 -32 C 3 -54, 3 -74, 0 -92"
       transform="rotate(180)"
       style="fill:none;stroke:#f2fbff;stroke-opacity:0.70;stroke-width:2;stroke-linecap:round"
       id="path47" /><path
       d="M 0 -32 C 3 -54, 3 -74, 0 -92"
       transform="rotate(240)"
       style="fill:none;stroke:#f2fbff;stroke-opacity:0.70;stroke-width:2;stroke-linecap:round"
       id="path49" /><path
       d="M 0 -32 C 3 -54, 3 -74, 0 -92"
       transform="rotate(300)"
       style="fill:none;stroke:#f2fbff;stroke-opacity:0.70;stroke-width:2;stroke-linecap:round"
       id="path51" /></g><!-- Center circle --><circle
     id="center"
     cx="129.1642"
     cy="127.58475"
     style="fill:#0000bf;fill-opacity:1;stroke:#0000fb;stroke-width:1.36613;stroke-opacity:1"
     r="39.617783" /><!-- Text --><path
     style="fill:#ac14ba;fill-opacity:1;stroke:#ffffff;stroke-width:0.75;stroke-dasharray:none;stroke-opacity:1"
     d="m 191.68697,32.282678 -25.63013,27.287375 3.11668,6.376217 -20.55985,24.597303 0.38323,1.972956 33.22368,-25.426695 -1.94479,-7.944702 16.84304,-15.558023 z"
     id="path3717" /><path
     style="fill:#ac14ba;fill-opacity:1;stroke:#ffffff;stroke-width:0.75;stroke-dasharray:none;stroke-opacity:1"
     d="m 64.503536,33.444142 25.63013,27.287375 -3.11668,6.376217 20.559854,24.597302 -0.38323,1.97296 -33.223684,-25.426698 1.94479,-7.944702 -16.84304,-15.558023 z"
     id="path3717-3" /><path
     style="fill:#ac14ba;fill-opacity:1;stroke:#ffffff;stroke-width:0.75;stroke-dasharray:none;stroke-opacity:1"
     d="m 189.61372,222.60723 -25.63013,-27.28738 3.11668,-6.37622 -20.55985,-24.5973 0.38323,-1.97296 33.22368,25.4267 -1.94479,7.9447 16.84304,15.55802 z"
     id="path3717-6" /><path
     style="fill:#ac14ba;fill-opacity:1;stroke:#ffffff;stroke-width:0.75;stroke-dasharray:none;stroke-opacity:1"
     d="m 67.18407,221.27792 25.63013,-27.28738 -3.11668,-6.37621 20.55985,-24.59731 -0.38323,-1.97296 -33.22368,25.4267 1.94479,7.9447 -16.84304,15.55803 z"
     id="path3717-3-7" /><path
     style="fill:none;fill-opacity:1;stroke:#cfcff0;stroke-width:1;stroke-dasharray:none;stroke-opacity:1"
     d="M 133.85428,124.75526 Z"
     id="path4552" /><g
     id="g4651"
     transform="matrix(1.7850957,0,0,1.7850957,-128.51257,-98.157168)"><path
       style="fill:none;fill-opacity:1;stroke:#cfcff0;stroke-width:1;stroke-dasharray:none;stroke-opacity:1"
       d="m 137.67204,109.91287 c -17.31582,4.00915 -11.66956,28.30769 -1.86877,34.56672"
       id="path4586"
       sodipodi:nodetypes="cc" /><path
       style="fill:none;fill-opacity:1;stroke:#cfcff0;stroke-width:1;stroke-dasharray:none;stroke-opacity:1"
       d="m 139.58569,113.76152 c -13.32798,2.61219 -9.84653,21.72628 -2.2899,26.12544"
       id="path4588"
       sodipodi:nodetypes="cc" /><path
       style="fill:none;fill-opacity:1;stroke:#cfcff0;stroke-width:1;stroke-dasharray:none;stroke-opacity:1"
       d="m 149.91016,113.7434 c 11.84416,1.70111 11.73632,21.88799 2.89123,27.38072"
       id="path4590"
       sodipodi:nodetypes="cc" /><path
       style="fill:none;fill-opacity:1;stroke:#cfcff0;stroke-width:1;stroke-dasharray:none;stroke-opacity:1"
       d="m 151.58844,109.84974 c 15.00593,2.58193 15.56079,25.69596 4.74125,33.588"
       id="path4592"
       sodipodi:nodetypes="cc" /><path
       style="fill:#ffffff;fill-opacity:1;stroke:#cfcff0;stroke-width:1;stroke-dasharray:none;stroke-opacity:1"
       d="m 136.21483,135.36816 c -1.44785,0.0106 -2.31205,-0.57807 -1.67294,-2.71015 0.94952,-0.667 1.78343,-1.26021 2.31934,-2.41872 0.6593,-1.01018 0.88571,-2.13605 1.18675,-3.302 l 0.0111,-6.0543 c 0.77739,-1.76786 1.98026,-3.29068 4.21601,-4.21868 l 4.15249,-0.13198 c 2.33509,0.53472 3.57052,2.19735 4.49085,4.18319 l 0.32425,6.29292 1.81427,4.2078 1.56498,1.88065 c 0.71271,1.05939 1.36699,2.10169 -0.8564,2.30159 z"
       id="path4594"
       sodipodi:nodetypes="ccccccccccccc" /><path
       style="fill:#ffffff;fill-opacity:1;stroke:#cfcff0;stroke-width:1;stroke-dasharray:none;stroke-opacity:1"
       d="m 142.90142,116.78314 0.0128,-3.68652 c 1.36023,-1.84403 2.35617,-1.16045 3.2999,-0.11463 l 0.0595,3.66554 z"
       id="path4596"
       sodipodi:nodetypes="ccccc" /><path
       style="fill:#ffffff;fill-opacity:1;stroke:#cfcff0;stroke-width:1;stroke-dasharray:none;stroke-opacity:1"
       d="m 147.26639,135.59952 0.0904,1.05763 c -0.95877,3.75142 -5.13968,3.24498 -5.78309,-0.25499 l -0.025,-0.92373"
       id="path4598"
       sodipodi:nodetypes="cccc" /></g><rect
     style="fill:none;fill-opacity:1;stroke:#9393d1;stroke-width:0.0964517;stroke-dasharray:none;stroke-opacity:1"
     id="rect4949"
     width="192.90355"
     height="192.90355"
     x="31.538326"
     y="31.442013" /></svg>
