<svg xmlns="http://www.w3.org/2000/svg" width="198" height="192" version="1.0">
  <path fill="#fff" stroke="#00f" stroke-linecap="round" stroke-width="1.70000005" d="M71.9375 6.84375v44.25l-38.3125-22.125L8 73.375l38.3125 22.09375L8 117.59375l25.625 44.4375 38.3125-22.125v44.25H123.25V139.9375l38.28125 22.09375 25.65625-44.4375L148.875 95.5l38.3125-22.125-25.65625-44.40625L123.25 51.0625V6.84375H71.9375z"/>
  <path fill="#00f" d="M75.09375 10v46.53125L34.78125 33.25l-22.5 38.96875L52.59375 95.5l-40.3125 23.25 22.5 38.96875 40.3125-23.28125V181h45v-46.53125l40.28125 23.25 22.5-38.96875-40.3125-23.25 40.3125-23.28125-22.5-38.96875-40.28125 23.25V10h-45z"/>
  <path fill="#fff" fill-rule="evenodd" stroke="#395475" stroke-width=".60000002" d="M92.517151 28.749341c-.108165-3.261868 2.846951-6.304555 6.005075-6.304555 2.259464 0 5.041684 1.718721 4.976294 4.583927-.79015 34.623955-2.89385 104.866307-3.688654 139.820577-.02403 1.05701-1.35523.58854-1.403534-.49573-1.544423-34.6672-4.725868-102.522697-5.889181-137.604219z"/>
  <path fill="#fff" fill-rule="evenodd" stroke="#395475" stroke-width=".60000002" d="M94.036939 33.435356c2.505623 0 3.630713 1.523558 5.180778 2.864011 1.497323 1.294839 2.671463 2.479523 2.671463 3.753403 0 1.338764-.98273.937612-2.024023 1.429304-.54852.259006-.499572.818718-1.3955.818718-2.153558 0-3.010987-2.026386-5.952507-2.026386-2.424111 0-5.572559 2.904739-5.572559 8.23219 0 8.046089 3.102902 11.651715 6.775725 14.437995l.379947 9.562005c-3.926121-1.646437-14.058047-10.575123-14.058047-22.986807 0-10.801673 7.013011-16.084433 13.994723-16.084433z"/>
  <path fill="#00f" fill-rule="evenodd" d="M94.986808 36.126649c1.791288-.283965 1.611109.792182 2.406332 1.488126-1.838434.054636-2.245762-.71647-2.406332-1.488126z"/>
  <path fill="#fff" fill-rule="evenodd" stroke="#395475" stroke-width=".60000002" d="M102.52243 66.934037l-.2533 9.118733c0 5.57445-14.754618 15.354654-14.754618 25.32982 0 7.68205 6.174143 12.60158 8.453826 13.74142l-.284961-8.04222s-2.786279-1.87903-2.786279-5.06596c0-4.509672 16.970972-16.124154 16.970972-25.013191 0-6.302706-4.30606-8.654354-7.34564-10.068602zM101.35093 111.54617s5.79419 3.83072 5.79419 8.6438c0 4.11749-3.15748 7.88415-6.8875 11.77934-4.357416 4.55037-5.277587 10.2467-2.706168 16.21011l.221635 4.87598c-1.868074-1.51979-4.812665-6.26671-4.812665-14.18469 0-9.53083 8.168868-12.39813 8.168868-21.18205l.22164-6.14249zM100.21108 151.25066s2.6913 1.44795 2.6913 5.22427c0 3.55465-4.450779 6.80063-5.129293 7.28233-.657297.46664-.909218-.14107-.379947-.63325.546479-.50818 2.78628-3.50978 2.78628-6.9657l.03166-4.90765z"/>
</svg>
